<svg width="1817" height="1560" viewBox="0 0 1817 1560" fill="none" xmlns="http://www.w3.org/2000/svg">
<g clip-path="url(#paint0_diamond_1237_3_clip_path)" data-figma-skip-parse="true"><g transform="matrix(0.859 -1.3965 1.75744 1.08102 908 784)"><rect x="0" y="0" width="753.956" height="614.587" fill="url(#paint0_diamond_1237_3)" opacity="1" shape-rendering="crispEdges"/><rect x="0" y="0" width="753.956" height="614.587" transform="scale(1 -1)" fill="url(#paint0_diamond_1237_3)" opacity="1" shape-rendering="crispEdges"/><rect x="0" y="0" width="753.956" height="614.587" transform="scale(-1 1)" fill="url(#paint0_diamond_1237_3)" opacity="1" shape-rendering="crispEdges"/><rect x="0" y="0" width="753.956" height="614.587" transform="scale(-1)" fill="url(#paint0_diamond_1237_3)" opacity="1" shape-rendering="crispEdges"/></g></g><path d="M50.1492 182L93.6976 157.433L4.91838 0.0586119L0.166464 180.685L50.1492 182ZM463.149 633L441.83 678.227L441.83 678.227L463.149 633ZM1256.65 573L1237.75 619.29L1256.65 573ZM1609.65 834L1569.59 863.919L1569.59 863.919L1609.65 834ZM1756.65 1209L1707.37 1217.46L1756.65 1209ZM1756.65 1546L1708.38 1559.05L1806.36 1551.34L1756.65 1546ZM1571.65 1154.5L1608.82 1121.06L1571.65 1154.5ZM1099.15 910L1114.73 862.489L1099.15 910ZM430.649 834L407.502 878.319L430.649 834ZM120.649 573L164.012 548.107L120.649 573ZM50.1492 182C6.60071 206.567 6.6056 206.576 6.61124 206.586C6.61413 206.591 6.62053 206.602 6.6263 206.612C6.63785 206.633 6.65242 206.658 6.66999 206.689C6.70513 206.752 6.75228 206.835 6.81138 206.939C6.92956 207.147 7.09548 207.439 7.30847 207.811C7.73444 208.557 8.34876 209.627 9.146 211.004C10.7403 213.757 13.0671 217.737 16.083 222.798C22.1129 232.917 30.9074 247.373 42.1183 264.992C64.511 300.183 96.6928 348.225 135.877 399.627C212.742 500.459 322.141 621.809 441.83 678.227L484.468 587.773C388.135 542.364 291.035 438.215 215.405 339.003C178.342 290.384 147.778 244.768 126.486 211.307C115.855 194.6 107.573 180.981 101.987 171.607C99.1948 166.921 97.0787 163.3 95.6821 160.889C94.9839 159.683 94.4658 158.78 94.1332 158.198C93.9669 157.907 93.847 157.696 93.7742 157.568C93.7377 157.504 93.7131 157.46 93.7003 157.438C93.6939 157.427 93.6905 157.42 93.69 157.42C93.6898 157.419 93.6917 157.423 93.6916 157.422C93.6942 157.427 93.6976 157.433 50.1492 182ZM441.83 678.227C603.491 754.429 749.219 701.152 874.498 655.63C1004.66 608.334 1114.36 568.908 1237.75 619.29L1275.55 526.71C1111.24 459.62 964.73 516.446 840.346 561.643C711.077 608.615 603.909 644.074 484.468 587.773L441.83 678.227ZM1237.75 619.29C1390.44 681.636 1473.79 735.649 1569.59 863.919L1649.71 804.081C1540.33 657.623 1440.3 593.979 1275.55 526.71L1237.75 619.29ZM1569.59 863.919C1657.09 981.084 1681.43 1066.33 1707.37 1217.46L1805.93 1200.54C1778.65 1041.61 1750.45 938.973 1649.71 804.081L1569.59 863.919ZM1707.37 1217.46C1717.56 1276.84 1717.8 1356.68 1715.04 1424.1C1713.68 1457.3 1711.64 1486.58 1709.94 1507.54C1709.09 1518.01 1708.33 1526.38 1707.79 1532.09C1707.52 1534.94 1707.3 1537.13 1707.15 1538.58C1707.08 1539.31 1707.02 1539.85 1706.98 1540.2C1706.97 1540.37 1706.95 1540.5 1706.94 1540.58C1706.94 1540.62 1706.94 1540.64 1706.94 1540.66C1706.93 1540.66 1706.93 1540.67 1706.93 1540.67C1706.93 1540.67 1706.93 1540.67 1706.93 1540.67C1706.93 1540.66 1706.94 1540.66 1756.65 1546C1806.36 1551.34 1806.36 1551.33 1806.36 1551.33C1806.36 1551.33 1806.37 1551.32 1806.37 1551.31C1806.37 1551.3 1806.37 1551.29 1806.37 1551.27C1806.37 1551.23 1806.38 1551.18 1806.39 1551.12C1806.4 1551 1806.42 1550.83 1806.44 1550.6C1806.49 1550.16 1806.55 1549.52 1806.64 1548.7C1806.8 1547.05 1807.04 1544.66 1807.34 1541.59C1807.92 1535.46 1808.73 1526.61 1809.62 1515.62C1811.4 1493.66 1813.53 1463.02 1814.96 1428.18C1817.76 1359.53 1818 1270.87 1805.93 1200.54L1707.37 1217.46ZM1756.65 1546C1804.91 1532.95 1804.91 1532.94 1804.91 1532.93C1804.91 1532.92 1804.91 1532.92 1804.9 1532.91C1804.9 1532.89 1804.89 1532.87 1804.89 1532.84C1804.87 1532.79 1804.86 1532.73 1804.83 1532.65C1804.79 1532.48 1804.73 1532.25 1804.65 1531.96C1804.49 1531.39 1804.26 1530.56 1803.96 1529.49C1803.36 1527.36 1802.49 1524.29 1801.35 1520.36C1799.06 1512.52 1795.7 1501.27 1791.32 1487.42C1782.57 1459.76 1769.68 1421.53 1753.13 1379.19C1720.69 1296.17 1671.79 1191.04 1608.82 1121.06L1534.48 1187.94C1584.62 1243.67 1628.22 1334.29 1660 1415.59C1675.56 1455.41 1687.72 1491.49 1695.98 1517.59C1700.1 1530.62 1703.24 1541.13 1705.33 1548.31C1706.38 1551.9 1707.16 1554.65 1707.67 1556.48C1707.92 1557.39 1708.11 1558.07 1708.23 1558.5C1708.29 1558.72 1708.33 1558.87 1708.36 1558.97C1708.37 1559.01 1708.38 1559.04 1708.38 1559.06C1708.39 1559.07 1708.39 1559.07 1708.39 1559.07C1708.39 1559.07 1708.39 1559.07 1708.39 1559.06C1708.39 1559.06 1708.38 1559.05 1756.65 1546ZM1608.82 1121.06C1458.86 954.398 1306.84 925.49 1114.73 862.489L1083.57 957.511C1286.29 1023.99 1406.5 1045.71 1534.48 1187.94L1608.82 1121.06ZM1114.73 862.489C979.086 818.008 859.919 830.713 755.602 837.002C650.445 843.341 557.487 843.836 453.796 789.681L407.502 878.319C536.707 945.801 653.166 943.359 761.619 936.821C870.912 930.232 969.546 920.119 1083.57 957.511L1114.73 862.489ZM453.796 789.681C314.361 716.856 235.082 671.909 164.012 548.107L77.2863 597.893C163.796 748.59 266.384 804.616 407.502 878.319L453.796 789.681ZM164.012 548.107C131.03 490.653 114.063 402.081 106.191 322.14C102.36 283.235 100.844 248.285 100.29 223.073C100.013 210.49 99.9778 200.393 100.01 193.513C100.026 190.074 100.058 187.443 100.086 185.712C100.1 184.847 100.112 184.206 100.121 183.803C100.125 183.601 100.128 183.459 100.13 183.377C100.131 183.336 100.132 183.31 100.132 183.3C100.132 183.295 100.132 183.293 100.132 183.296C100.132 183.297 100.132 183.302 100.132 183.302C100.132 183.308 100.132 183.315 50.1492 182C0.166464 180.685 0.166237 180.694 0.165985 180.703C0.165868 180.708 0.165592 180.719 0.165359 180.728C0.164894 180.746 0.164334 180.768 0.163684 180.794C0.162384 180.846 0.160725 180.913 0.158752 180.996C0.154805 181.162 0.149598 181.389 0.143481 181.677C0.131247 182.252 0.11537 183.068 0.0986531 184.114C0.0652237 186.204 0.0284097 189.215 0.0106921 193.051C-0.0247297 200.72 0.0160925 211.709 0.314092 225.27C0.90906 252.345 2.53415 289.914 6.67244 331.939C14.739 413.857 33.0218 520.785 77.2863 597.893L164.012 548.107Z" data-figma-gradient-fill="{&#34;type&#34;:&#34;GRADIENT_DIAMOND&#34;,&#34;stops&#34;:[{&#34;color&#34;:{&#34;r&#34;:0.24861349165439606,&#34;g&#34;:0.79963028430938721,&#34;b&#34;:1.0,&#34;a&#34;:1.0},&#34;position&#34;:0.0},{&#34;color&#34;:{&#34;r&#34;:0.82784307003021240,&#34;g&#34;:0.96760541200637817,&#34;b&#34;:0.99724322557449341,&#34;a&#34;:1.0},&#34;position&#34;:0.50},{&#34;color&#34;:{&#34;r&#34;:0.31180486083030701,&#34;g&#34;:0.70420712232589722,&#34;b&#34;:0.94813281297683716,&#34;a&#34;:1.0},&#34;position&#34;:1.0}],&#34;stopsVar&#34;:[{&#34;color&#34;:{&#34;r&#34;:0.24861349165439606,&#34;g&#34;:0.79963028430938721,&#34;b&#34;:1.0,&#34;a&#34;:1.0},&#34;position&#34;:0.0},{&#34;color&#34;:{&#34;r&#34;:0.82784307003021240,&#34;g&#34;:0.96760541200637817,&#34;b&#34;:0.99724322557449341,&#34;a&#34;:1.0},&#34;position&#34;:0.50},{&#34;color&#34;:{&#34;r&#34;:0.31180486083030701,&#34;g&#34;:0.70420712232589722,&#34;b&#34;:0.94813281297683716,&#34;a&#34;:1.0},&#34;position&#34;:1.0}],&#34;transform&#34;:{&#34;m00&#34;:1718.0002441406250,&#34;m01&#34;:3514.889160156250,&#34;m02&#34;:-1708.444824218750,&#34;m10&#34;:-2793.0,&#34;m11&#34;:2162.0410156250,&#34;m12&#34;:1099.47949218750},&#34;opacity&#34;:1.0,&#34;blendMode&#34;:&#34;NORMAL&#34;,&#34;visible&#34;:true}"/>
<defs>
<clipPath id="paint0_diamond_1237_3_clip_path"><path d="M50.1492 182L93.6976 157.433L4.91838 0.0586119L0.166464 180.685L50.1492 182ZM463.149 633L441.83 678.227L441.83 678.227L463.149 633ZM1256.65 573L1237.75 619.29L1256.65 573ZM1609.65 834L1569.59 863.919L1569.59 863.919L1609.65 834ZM1756.65 1209L1707.37 1217.46L1756.65 1209ZM1756.65 1546L1708.38 1559.05L1806.36 1551.34L1756.65 1546ZM1571.65 1154.5L1608.82 1121.06L1571.65 1154.5ZM1099.15 910L1114.73 862.489L1099.15 910ZM430.649 834L407.502 878.319L430.649 834ZM120.649 573L164.012 548.107L120.649 573ZM50.1492 182C6.60071 206.567 6.6056 206.576 6.61124 206.586C6.61413 206.591 6.62053 206.602 6.6263 206.612C6.63785 206.633 6.65242 206.658 6.66999 206.689C6.70513 206.752 6.75228 206.835 6.81138 206.939C6.92956 207.147 7.09548 207.439 7.30847 207.811C7.73444 208.557 8.34876 209.627 9.146 211.004C10.7403 213.757 13.0671 217.737 16.083 222.798C22.1129 232.917 30.9074 247.373 42.1183 264.992C64.511 300.183 96.6928 348.225 135.877 399.627C212.742 500.459 322.141 621.809 441.83 678.227L484.468 587.773C388.135 542.364 291.035 438.215 215.405 339.003C178.342 290.384 147.778 244.768 126.486 211.307C115.855 194.6 107.573 180.981 101.987 171.607C99.1948 166.921 97.0787 163.3 95.6821 160.889C94.9839 159.683 94.4658 158.78 94.1332 158.198C93.9669 157.907 93.847 157.696 93.7742 157.568C93.7377 157.504 93.7131 157.46 93.7003 157.438C93.6939 157.427 93.6905 157.42 93.69 157.42C93.6898 157.419 93.6917 157.423 93.6916 157.422C93.6942 157.427 93.6976 157.433 50.1492 182ZM441.83 678.227C603.491 754.429 749.219 701.152 874.498 655.63C1004.66 608.334 1114.36 568.908 1237.75 619.29L1275.55 526.71C1111.24 459.62 964.73 516.446 840.346 561.643C711.077 608.615 603.909 644.074 484.468 587.773L441.83 678.227ZM1237.75 619.29C1390.44 681.636 1473.79 735.649 1569.59 863.919L1649.71 804.081C1540.33 657.623 1440.3 593.979 1275.55 526.71L1237.75 619.29ZM1569.59 863.919C1657.09 981.084 1681.43 1066.33 1707.37 1217.46L1805.93 1200.54C1778.65 1041.61 1750.45 938.973 1649.71 804.081L1569.59 863.919ZM1707.37 1217.46C1717.56 1276.84 1717.8 1356.68 1715.04 1424.1C1713.68 1457.3 1711.64 1486.58 1709.94 1507.54C1709.09 1518.01 1708.33 1526.38 1707.79 1532.09C1707.52 1534.94 1707.3 1537.13 1707.15 1538.58C1707.08 1539.31 1707.02 1539.85 1706.98 1540.2C1706.97 1540.37 1706.95 1540.5 1706.94 1540.58C1706.94 1540.62 1706.94 1540.64 1706.94 1540.66C1706.93 1540.66 1706.93 1540.67 1706.93 1540.67C1706.93 1540.67 1706.93 1540.67 1706.93 1540.67C1706.93 1540.66 1706.94 1540.66 1756.65 1546C1806.36 1551.34 1806.36 1551.33 1806.36 1551.33C1806.36 1551.33 1806.37 1551.32 1806.37 1551.31C1806.37 1551.3 1806.37 1551.29 1806.37 1551.27C1806.37 1551.23 1806.38 1551.18 1806.39 1551.12C1806.4 1551 1806.42 1550.83 1806.44 1550.6C1806.49 1550.16 1806.55 1549.52 1806.64 1548.7C1806.8 1547.05 1807.04 1544.66 1807.34 1541.59C1807.92 1535.46 1808.73 1526.61 1809.62 1515.62C1811.4 1493.66 1813.53 1463.02 1814.96 1428.18C1817.76 1359.53 1818 1270.87 1805.93 1200.54L1707.37 1217.46ZM1756.65 1546C1804.91 1532.95 1804.91 1532.94 1804.91 1532.93C1804.91 1532.92 1804.91 1532.92 1804.9 1532.91C1804.9 1532.89 1804.89 1532.87 1804.89 1532.84C1804.87 1532.79 1804.86 1532.73 1804.83 1532.65C1804.79 1532.48 1804.73 1532.25 1804.65 1531.96C1804.49 1531.39 1804.26 1530.56 1803.96 1529.49C1803.36 1527.36 1802.49 1524.29 1801.35 1520.36C1799.06 1512.52 1795.7 1501.27 1791.32 1487.42C1782.57 1459.76 1769.68 1421.53 1753.13 1379.19C1720.69 1296.17 1671.79 1191.04 1608.82 1121.06L1534.48 1187.94C1584.62 1243.67 1628.22 1334.29 1660 1415.59C1675.56 1455.41 1687.72 1491.49 1695.98 1517.59C1700.1 1530.62 1703.24 1541.13 1705.33 1548.31C1706.38 1551.9 1707.16 1554.65 1707.67 1556.48C1707.92 1557.39 1708.11 1558.07 1708.23 1558.5C1708.29 1558.72 1708.33 1558.87 1708.36 1558.97C1708.37 1559.01 1708.38 1559.04 1708.38 1559.06C1708.39 1559.07 1708.39 1559.07 1708.39 1559.07C1708.39 1559.07 1708.39 1559.07 1708.39 1559.06C1708.39 1559.06 1708.38 1559.05 1756.65 1546ZM1608.82 1121.06C1458.86 954.398 1306.84 925.49 1114.73 862.489L1083.57 957.511C1286.29 1023.99 1406.5 1045.71 1534.48 1187.94L1608.82 1121.06ZM1114.73 862.489C979.086 818.008 859.919 830.713 755.602 837.002C650.445 843.341 557.487 843.836 453.796 789.681L407.502 878.319C536.707 945.801 653.166 943.359 761.619 936.821C870.912 930.232 969.546 920.119 1083.57 957.511L1114.73 862.489ZM453.796 789.681C314.361 716.856 235.082 671.909 164.012 548.107L77.2863 597.893C163.796 748.59 266.384 804.616 407.502 878.319L453.796 789.681ZM164.012 548.107C131.03 490.653 114.063 402.081 106.191 322.14C102.36 283.235 100.844 248.285 100.29 223.073C100.013 210.49 99.9778 200.393 100.01 193.513C100.026 190.074 100.058 187.443 100.086 185.712C100.1 184.847 100.112 184.206 100.121 183.803C100.125 183.601 100.128 183.459 100.13 183.377C100.131 183.336 100.132 183.31 100.132 183.3C100.132 183.295 100.132 183.293 100.132 183.296C100.132 183.297 100.132 183.302 100.132 183.302C100.132 183.308 100.132 183.315 50.1492 182C0.166464 180.685 0.166237 180.694 0.165985 180.703C0.165868 180.708 0.165592 180.719 0.165359 180.728C0.164894 180.746 0.164334 180.768 0.163684 180.794C0.162384 180.846 0.160725 180.913 0.158752 180.996C0.154805 181.162 0.149598 181.389 0.143481 181.677C0.131247 182.252 0.11537 183.068 0.0986531 184.114C0.0652237 186.204 0.0284097 189.215 0.0106921 193.051C-0.0247297 200.72 0.0160925 211.709 0.314092 225.27C0.90906 252.345 2.53415 289.914 6.67244 331.939C14.739 413.857 33.0218 520.785 77.2863 597.893L164.012 548.107Z"/></clipPath><linearGradient id="paint0_diamond_1237_3" x1="0" y1="0" x2="500" y2="500" gradientUnits="userSpaceOnUse">
<stop stop-color="#3FCCFF"/>
<stop offset="0.5" stop-color="#D3F7FE"/>
<stop offset="1" stop-color="#50B4F2"/>
</linearGradient>
</defs>
</svg>
