<svg width="1696" height="2728" viewBox="0 0 1696 2728" fill="none" xmlns="http://www.w3.org/2000/svg">
<g clip-path="url(#paint0_diamond_102_2_clip_path)" data-figma-skip-parse="true"><g transform="matrix(1.5035 -1.354 0.841374 0.934273 364.5 1593)"><rect x="0" y="0" width="1016.26" height="1379.9" fill="url(#paint0_diamond_102_2)" opacity="1" shape-rendering="crispEdges"/><rect x="0" y="0" width="1016.26" height="1379.9" transform="scale(1 -1)" fill="url(#paint0_diamond_102_2)" opacity="1" shape-rendering="crispEdges"/><rect x="0" y="0" width="1016.26" height="1379.9" transform="scale(-1 1)" fill="url(#paint0_diamond_102_2)" opacity="1" shape-rendering="crispEdges"/><rect x="0" y="0" width="1016.26" height="1379.9" transform="scale(-1)" fill="url(#paint0_diamond_102_2)" opacity="1" shape-rendering="crispEdges"/></g></g><path d="M1672 2727.5V159.5V43C1695.33 38.3333 1721.4 24.3 1639 5.49998C1536 -18 1373.5 38.5001 1284.5 99C1195.5 159.5 1149 384 1041.5 398C934 412 785.651 410.623 672.5 510C556.008 612.312 632.005 773.437 514 874C401.599 969.787 276 901.5 150 976.5C24.0001 1051.5 -36.4999 1224.5 24 1378.5C84.5 1532.5 327 1742.5 514 1803C701 1863.5 1102 1994.5 1373 2242C1589.8 2440 1662.67 2648.17 1672 2727.5Z" data-figma-gradient-fill="{&#34;type&#34;:&#34;GRADIENT_DIAMOND&#34;,&#34;stops&#34;:[{&#34;color&#34;:{&#34;r&#34;:0.56389719247817993,&#34;g&#34;:0.70926481485366821,&#34;b&#34;:1.0,&#34;a&#34;:1.0},&#34;position&#34;:0.0},{&#34;color&#34;:{&#34;r&#34;:0.40416514873504639,&#34;g&#34;:0.72321611642837524,&#34;b&#34;:1.0,&#34;a&#34;:1.0},&#34;position&#34;:0.49500000476837158},{&#34;color&#34;:{&#34;r&#34;:0.43843486905097961,&#34;g&#34;:0.85024929046630859,&#34;b&#34;:1.0,&#34;a&#34;:1.0},&#34;position&#34;:1.0}],&#34;stopsVar&#34;:[{&#34;color&#34;:{&#34;r&#34;:0.56389719247817993,&#34;g&#34;:0.70926481485366821,&#34;b&#34;:1.0,&#34;a&#34;:1.0},&#34;position&#34;:0.0},{&#34;color&#34;:{&#34;r&#34;:0.40416514873504639,&#34;g&#34;:0.72321611642837524,&#34;b&#34;:1.0,&#34;a&#34;:1.0},&#34;position&#34;:0.49500000476837158},{&#34;color&#34;:{&#34;r&#34;:0.43843486905097961,&#34;g&#34;:0.85024929046630859,&#34;b&#34;:1.0,&#34;a&#34;:1.0},&#34;position&#34;:1.0}],&#34;transform&#34;:{&#34;m00&#34;:3007.0002441406250,&#34;m01&#34;:1682.7476806640625,&#34;m02&#34;:-1980.37402343750,&#34;m10&#34;:-2708.0,&#34;m11&#34;:1868.54589843750,&#34;m12&#34;:2012.7271728515625},&#34;opacity&#34;:1.0,&#34;blendMode&#34;:&#34;NORMAL&#34;,&#34;visible&#34;:true}"/>
<defs>
<clipPath id="paint0_diamond_102_2_clip_path"><path d="M1672 2727.5V159.5V43C1695.33 38.3333 1721.4 24.3 1639 5.49998C1536 -18 1373.5 38.5001 1284.5 99C1195.5 159.5 1149 384 1041.5 398C934 412 785.651 410.623 672.5 510C556.008 612.312 632.005 773.437 514 874C401.599 969.787 276 901.5 150 976.5C24.0001 1051.5 -36.4999 1224.5 24 1378.5C84.5 1532.5 327 1742.5 514 1803C701 1863.5 1102 1994.5 1373 2242C1589.8 2440 1662.67 2648.17 1672 2727.5Z"/></clipPath><linearGradient id="paint0_diamond_102_2" x1="0" y1="0" x2="500" y2="500" gradientUnits="userSpaceOnUse">
<stop stop-color="#90B5FF"/>
<stop offset="0.495" stop-color="#67B8FF"/>
<stop offset="1" stop-color="#70D9FF"/>
</linearGradient>
</defs>
</svg>
